<svg width="647" height="40" viewBox="0 0 647 40" fill="none" xmlns="http://www.w3.org/2000/svg">
<path d="M18.72 21.992C18.144 20.936 17.352 20.132 16.344 19.58C15.336 19.028 14.16 18.752 12.816 18.752C11.328 18.752 10.008 19.088 8.856 19.76C7.704 20.432 6.804 21.392 6.156 22.64C5.508 23.888 5.184 25.328 5.184 26.96C5.184 28.64 5.508 30.104 6.156 31.352C6.828 32.6 7.752 33.56 8.928 34.232C10.104 34.904 11.472 35.24 13.032 35.24C14.952 35.24 16.524 34.736 17.748 33.728C18.972 32.696 19.776 31.268 20.16 29.444H11.52V25.592H25.128V29.984C24.792 31.736 24.072 33.356 22.968 34.844C21.864 36.332 20.436 37.532 18.684 38.444C16.956 39.332 15.012 39.776 12.852 39.776C10.428 39.776 8.232 39.236 6.264 38.156C4.32 37.052 2.784 35.528 1.656 33.584C0.552 31.64 0 29.432 0 26.96C0 24.488 0.552 22.28 1.656 20.336C2.784 18.368 4.32 16.844 6.264 15.764C8.232 14.66 10.416 14.108 12.816 14.108C15.648 14.108 18.108 14.804 20.196 16.196C22.284 17.564 23.724 19.496 24.516 21.992H18.72Z" fill="#CCCCCC"/>
<path d="M39.6568 18.5V24.8H48.1168V28.796H39.6568V35.456H49.1968V39.56H34.6168V14.396H49.1968V18.5H39.6568Z" fill="#CCCCCC"/>
<path d="M76.637 14.432V18.5H69.941V39.56H64.901V18.5H58.205V14.432H76.637Z" fill="#CCCCCC"/>
<path d="M113.372 39.56L107.828 29.768H105.452V39.56H100.412V14.432H109.844C111.788 14.432 113.444 14.78 114.812 15.476C116.18 16.148 117.2 17.072 117.872 18.248C118.568 19.4 118.916 20.696 118.916 22.136C118.916 23.792 118.436 25.292 117.476 26.636C116.516 27.956 115.088 28.868 113.192 29.372L119.204 39.56H113.372ZM105.452 25.988H109.664C111.032 25.988 112.052 25.664 112.724 25.016C113.396 24.344 113.732 23.42 113.732 22.244C113.732 21.092 113.396 20.204 112.724 19.58C112.052 18.932 111.032 18.608 109.664 18.608H105.452V25.988Z" fill="#CCCCCC"/>
<path d="M134.275 18.5V24.8H142.735V28.796H134.275V35.456H143.815V39.56H129.235V14.396H143.815V18.5H134.275Z" fill="#CCCCCC"/>
<path d="M169.563 34.772H159.555L157.899 39.56H152.607L161.643 14.396H167.511L176.547 39.56H171.219L169.563 34.772ZM168.195 30.74L164.559 20.228L160.923 30.74H168.195Z" fill="#CCCCCC"/>
<path d="M194.469 14.432C197.109 14.432 199.425 14.948 201.417 15.98C203.433 17.012 204.981 18.488 206.061 20.408C207.165 22.304 207.717 24.512 207.717 27.032C207.717 29.552 207.165 31.76 206.061 33.656C204.981 35.528 203.433 36.98 201.417 38.012C199.425 39.044 197.109 39.56 194.469 39.56H185.685V14.432H194.469ZM194.289 35.276C196.929 35.276 198.969 34.556 200.409 33.116C201.849 31.676 202.569 29.648 202.569 27.032C202.569 24.416 201.849 22.376 200.409 20.912C198.969 19.424 196.929 18.68 194.289 18.68H190.725V35.276H194.289Z" fill="#CCCCCC"/>
<path d="M237.229 14.432L228.733 30.812V39.56H223.693V30.812L215.161 14.432H220.849L226.249 25.916L231.613 14.432H237.229Z" fill="#CCCCCC"/>
<path d="M275.75 14.432V18.5H265.274V24.944H273.302V28.94H265.274V39.56H260.234V14.432H275.75Z" fill="#CCCCCC"/>
<path d="M296.748 39.812C294.396 39.812 292.236 39.26 290.268 38.156C288.3 37.052 286.74 35.528 285.588 33.584C284.436 31.616 283.86 29.396 283.86 26.924C283.86 24.476 284.436 22.28 285.588 20.336C286.74 18.368 288.3 16.832 290.268 15.728C292.236 14.624 294.396 14.072 296.748 14.072C299.124 14.072 301.284 14.624 303.228 15.728C305.196 16.832 306.744 18.368 307.872 20.336C309.024 22.28 309.6 24.476 309.6 26.924C309.6 29.396 309.024 31.616 307.872 33.584C306.744 35.528 305.196 37.052 303.228 38.156C301.26 39.26 299.1 39.812 296.748 39.812ZM296.748 35.312C298.26 35.312 299.592 34.976 300.744 34.304C301.896 33.608 302.796 32.624 303.444 31.352C304.092 30.08 304.416 28.604 304.416 26.924C304.416 25.244 304.092 23.78 303.444 22.532C302.796 21.26 301.896 20.288 300.744 19.616C299.592 18.944 298.26 18.608 296.748 18.608C295.236 18.608 293.892 18.944 292.716 19.616C291.564 20.288 290.664 21.26 290.016 22.532C289.368 23.78 289.044 25.244 289.044 26.924C289.044 28.604 289.368 30.08 290.016 31.352C290.664 32.624 291.564 33.608 292.716 34.304C293.892 34.976 295.236 35.312 296.748 35.312Z" fill="#CCCCCC"/>
<path d="M332.07 39.56L326.526 29.768H324.15V39.56H319.11V14.432H328.542C330.486 14.432 332.142 14.78 333.51 15.476C334.878 16.148 335.898 17.072 336.57 18.248C337.266 19.4 337.614 20.696 337.614 22.136C337.614 23.792 337.134 25.292 336.174 26.636C335.214 27.956 333.786 28.868 331.89 29.372L337.902 39.56H332.07ZM324.15 25.988H328.362C329.73 25.988 330.75 25.664 331.422 25.016C332.094 24.344 332.43 23.42 332.43 22.244C332.43 21.092 332.094 20.204 331.422 19.58C330.75 18.932 329.73 18.608 328.362 18.608H324.15V25.988Z" fill="#CCCCCC"/>
<path d="M379.37 14.432V18.5H372.674V39.56H367.634V18.5H360.938V14.432H379.37Z" fill="#CCCCCC"/>
<path d="M409.652 14.432V39.56H404.612V28.868H393.848V39.56H388.808V14.432H393.848V24.764H404.612V14.432H409.652Z" fill="#CCCCCC"/>
<path d="M425.412 18.5V24.8H433.872V28.796H425.412V35.456H434.952V39.56H420.372V14.396H434.952V18.5H425.412Z" fill="#CCCCCC"/>
<path d="M472.591 39.56L467.047 29.768H464.671V39.56H459.631V14.432H469.063C471.007 14.432 472.663 14.78 474.031 15.476C475.399 16.148 476.419 17.072 477.091 18.248C477.787 19.4 478.135 20.696 478.135 22.136C478.135 23.792 477.655 25.292 476.695 26.636C475.735 27.956 474.307 28.868 472.411 29.372L478.423 39.56H472.591ZM464.671 25.988H468.883C470.251 25.988 471.271 25.664 471.943 25.016C472.615 24.344 472.951 23.42 472.951 22.244C472.951 21.092 472.615 20.204 471.943 19.58C471.271 18.932 470.251 18.608 468.883 18.608H464.671V25.988Z" fill="#CCCCCC"/>
<path d="M493.493 18.5V24.8H501.953V28.796H493.493V35.456H503.033V39.56H488.453V14.396H503.033V18.5H493.493Z" fill="#CCCCCC"/>
<path d="M535.945 14.432L526.729 39.56H520.609L511.393 14.432H516.793L523.705 34.412L530.581 14.432H535.945Z" fill="#CCCCCC"/>
<path d="M549.767 18.5V24.8H558.227V28.796H549.767V35.456H559.307V39.56H544.727V14.396H559.307V18.5H549.767Z" fill="#CCCCCC"/>
<path d="M585.055 34.772H575.047L573.391 39.56H568.099L577.135 14.396H583.003L592.039 39.56H586.711L585.055 34.772ZM583.687 30.74L580.051 20.228L576.415 30.74H583.687Z" fill="#CCCCCC"/>
<path d="M606.217 35.564H614.497V39.56H601.177V14.432H606.217V35.564Z" fill="#CCCCCC"/>
<path d="M629.976 14L629.4 31.388H625.152L624.54 14H629.976ZM627.384 39.812C626.472 39.812 625.716 39.536 625.116 38.984C624.54 38.408 624.252 37.7 624.252 36.86C624.252 36.02 624.54 35.324 625.116 34.772C625.716 34.196 626.472 33.908 627.384 33.908C628.272 33.908 629.004 34.196 629.58 34.772C630.156 35.324 630.444 36.02 630.444 36.86C630.444 37.7 630.156 38.408 629.58 38.984C629.004 39.536 628.272 39.812 627.384 39.812Z" fill="#CCCCCC"/>
<path d="M632 0L633.697 13.3029L647 15L633.697 16.6971L632 30L630.303 16.6971L617 15L630.303 13.3029L632 0Z" fill="white"/>
<mask id="mask0_25_3169" style="mask-type:alpha" maskUnits="userSpaceOnUse" x="0" y="14" width="631" height="26">
<path d="M18.72 21.992C18.144 20.936 17.352 20.132 16.344 19.58C15.336 19.028 14.16 18.752 12.816 18.752C11.328 18.752 10.008 19.088 8.856 19.76C7.704 20.432 6.804 21.392 6.156 22.64C5.508 23.888 5.184 25.328 5.184 26.96C5.184 28.64 5.508 30.104 6.156 31.352C6.828 32.6 7.752 33.56 8.928 34.232C10.104 34.904 11.472 35.24 13.032 35.24C14.952 35.24 16.524 34.736 17.748 33.728C18.972 32.696 19.776 31.268 20.16 29.444H11.52V25.592H25.128V29.984C24.792 31.736 24.072 33.356 22.968 34.844C21.864 36.332 20.436 37.532 18.684 38.444C16.956 39.332 15.012 39.776 12.852 39.776C10.428 39.776 8.232 39.236 6.264 38.156C4.32 37.052 2.784 35.528 1.656 33.584C0.552 31.64 0 29.432 0 26.96C0 24.488 0.552 22.28 1.656 20.336C2.784 18.368 4.32 16.844 6.264 15.764C8.232 14.66 10.416 14.108 12.816 14.108C15.648 14.108 18.108 14.804 20.196 16.196C22.284 17.564 23.724 19.496 24.516 21.992H18.72Z" fill="url(#paint0_linear_25_3169)"/>
<path d="M39.6568 18.5V24.8H48.1168V28.796H39.6568V35.456H49.1968V39.56H34.6168V14.396H49.1968V18.5H39.6568Z" fill="url(#paint1_linear_25_3169)"/>
<path d="M76.637 14.432V18.5H69.941V39.56H64.901V18.5H58.205V14.432H76.637Z" fill="url(#paint2_linear_25_3169)"/>
<path d="M113.372 39.56L107.828 29.768H105.452V39.56H100.412V14.432H109.844C111.788 14.432 113.444 14.78 114.812 15.476C116.18 16.148 117.2 17.072 117.872 18.248C118.568 19.4 118.916 20.696 118.916 22.136C118.916 23.792 118.436 25.292 117.476 26.636C116.516 27.956 115.088 28.868 113.192 29.372L119.204 39.56H113.372ZM105.452 25.988H109.664C111.032 25.988 112.052 25.664 112.724 25.016C113.396 24.344 113.732 23.42 113.732 22.244C113.732 21.092 113.396 20.204 112.724 19.58C112.052 18.932 111.032 18.608 109.664 18.608H105.452V25.988Z" fill="url(#paint3_linear_25_3169)"/>
<path d="M134.275 18.5V24.8H142.735V28.796H134.275V35.456H143.815V39.56H129.235V14.396H143.815V18.5H134.275Z" fill="url(#paint4_linear_25_3169)"/>
<path d="M169.563 34.772H159.555L157.899 39.56H152.607L161.643 14.396H167.511L176.547 39.56H171.219L169.563 34.772ZM168.195 30.74L164.559 20.228L160.923 30.74H168.195Z" fill="url(#paint5_linear_25_3169)"/>
<path d="M194.469 14.432C197.109 14.432 199.425 14.948 201.417 15.98C203.433 17.012 204.981 18.488 206.061 20.408C207.165 22.304 207.717 24.512 207.717 27.032C207.717 29.552 207.165 31.76 206.061 33.656C204.981 35.528 203.433 36.98 201.417 38.012C199.425 39.044 197.109 39.56 194.469 39.56H185.685V14.432H194.469ZM194.289 35.276C196.929 35.276 198.969 34.556 200.409 33.116C201.849 31.676 202.569 29.648 202.569 27.032C202.569 24.416 201.849 22.376 200.409 20.912C198.969 19.424 196.929 18.68 194.289 18.68H190.725V35.276H194.289Z" fill="url(#paint6_linear_25_3169)"/>
<path d="M237.229 14.432L228.733 30.812V39.56H223.693V30.812L215.161 14.432H220.849L226.249 25.916L231.613 14.432H237.229Z" fill="url(#paint7_linear_25_3169)"/>
<path d="M275.75 14.432V18.5H265.274V24.944H273.302V28.94H265.274V39.56H260.234V14.432H275.75Z" fill="url(#paint8_linear_25_3169)"/>
<path d="M296.748 39.812C294.396 39.812 292.236 39.26 290.268 38.156C288.3 37.052 286.74 35.528 285.588 33.584C284.436 31.616 283.86 29.396 283.86 26.924C283.86 24.476 284.436 22.28 285.588 20.336C286.74 18.368 288.3 16.832 290.268 15.728C292.236 14.624 294.396 14.072 296.748 14.072C299.124 14.072 301.284 14.624 303.228 15.728C305.196 16.832 306.744 18.368 307.872 20.336C309.024 22.28 309.6 24.476 309.6 26.924C309.6 29.396 309.024 31.616 307.872 33.584C306.744 35.528 305.196 37.052 303.228 38.156C301.26 39.26 299.1 39.812 296.748 39.812ZM296.748 35.312C298.26 35.312 299.592 34.976 300.744 34.304C301.896 33.608 302.796 32.624 303.444 31.352C304.092 30.08 304.416 28.604 304.416 26.924C304.416 25.244 304.092 23.78 303.444 22.532C302.796 21.26 301.896 20.288 300.744 19.616C299.592 18.944 298.26 18.608 296.748 18.608C295.236 18.608 293.892 18.944 292.716 19.616C291.564 20.288 290.664 21.26 290.016 22.532C289.368 23.78 289.044 25.244 289.044 26.924C289.044 28.604 289.368 30.08 290.016 31.352C290.664 32.624 291.564 33.608 292.716 34.304C293.892 34.976 295.236 35.312 296.748 35.312Z" fill="url(#paint9_linear_25_3169)"/>
<path d="M332.07 39.56L326.526 29.768H324.15V39.56H319.11V14.432H328.542C330.486 14.432 332.142 14.78 333.51 15.476C334.878 16.148 335.898 17.072 336.57 18.248C337.266 19.4 337.614 20.696 337.614 22.136C337.614 23.792 337.134 25.292 336.174 26.636C335.214 27.956 333.786 28.868 331.89 29.372L337.902 39.56H332.07ZM324.15 25.988H328.362C329.73 25.988 330.75 25.664 331.422 25.016C332.094 24.344 332.43 23.42 332.43 22.244C332.43 21.092 332.094 20.204 331.422 19.58C330.75 18.932 329.73 18.608 328.362 18.608H324.15V25.988Z" fill="url(#paint10_linear_25_3169)"/>
<path d="M379.37 14.432V18.5H372.674V39.56H367.634V18.5H360.938V14.432H379.37Z" fill="url(#paint11_linear_25_3169)"/>
<path d="M409.652 14.432V39.56H404.612V28.868H393.848V39.56H388.808V14.432H393.848V24.764H404.612V14.432H409.652Z" fill="url(#paint12_linear_25_3169)"/>
<path d="M425.412 18.5V24.8H433.872V28.796H425.412V35.456H434.952V39.56H420.372V14.396H434.952V18.5H425.412Z" fill="url(#paint13_linear_25_3169)"/>
<path d="M472.591 39.56L467.047 29.768H464.671V39.56H459.631V14.432H469.063C471.007 14.432 472.663 14.78 474.031 15.476C475.399 16.148 476.419 17.072 477.091 18.248C477.787 19.4 478.135 20.696 478.135 22.136C478.135 23.792 477.655 25.292 476.695 26.636C475.735 27.956 474.307 28.868 472.411 29.372L478.423 39.56H472.591ZM464.671 25.988H468.883C470.251 25.988 471.271 25.664 471.943 25.016C472.615 24.344 472.951 23.42 472.951 22.244C472.951 21.092 472.615 20.204 471.943 19.58C471.271 18.932 470.251 18.608 468.883 18.608H464.671V25.988Z" fill="url(#paint14_linear_25_3169)"/>
<path d="M493.493 18.5V24.8H501.953V28.796H493.493V35.456H503.033V39.56H488.453V14.396H503.033V18.5H493.493Z" fill="url(#paint15_linear_25_3169)"/>
<path d="M535.945 14.432L526.729 39.56H520.609L511.393 14.432H516.793L523.705 34.412L530.581 14.432H535.945Z" fill="url(#paint16_linear_25_3169)"/>
<path d="M549.767 18.5V24.8H558.227V28.796H549.767V35.456H559.307V39.56H544.727V14.396H559.307V18.5H549.767Z" fill="url(#paint17_linear_25_3169)"/>
<path d="M585.055 34.772H575.047L573.391 39.56H568.099L577.135 14.396H583.003L592.039 39.56H586.711L585.055 34.772ZM583.687 30.74L580.051 20.228L576.415 30.74H583.687Z" fill="url(#paint18_linear_25_3169)"/>
<path d="M606.217 35.564H614.497V39.56H601.177V14.432H606.217V35.564Z" fill="url(#paint19_linear_25_3169)"/>
<path d="M629.976 14L629.4 31.388H625.152L624.54 14H629.976ZM627.384 39.812C626.472 39.812 625.716 39.536 625.116 38.984C624.54 38.408 624.252 37.7 624.252 36.86C624.252 36.02 624.54 35.324 625.116 34.772C625.716 34.196 626.472 33.908 627.384 33.908C628.272 33.908 629.004 34.196 629.58 34.772C630.156 35.324 630.444 36.02 630.444 36.86C630.444 37.7 630.156 38.408 629.58 38.984C629.004 39.536 628.272 39.812 627.384 39.812Z" fill="url(#paint20_linear_25_3169)"/>
</mask>
<g mask="url(#mask0_25_3169)">
<g style="mix-blend-mode:overlay">
<path d="M630 7L659.5 62" stroke="white" stroke-width="4"/>
</g>
</g>
<defs>
<linearGradient id="paint0_linear_25_3169" x1="0.221191" y1="26.9782" x2="633.721" y2="26.9781" gradientUnits="userSpaceOnUse">
<stop stop-color="#B3B3B3"/>
<stop offset="1" stop-color="#808080"/>
</linearGradient>
<linearGradient id="paint1_linear_25_3169" x1="0.221191" y1="26.9782" x2="633.721" y2="26.9781" gradientUnits="userSpaceOnUse">
<stop stop-color="#B3B3B3"/>
<stop offset="1" stop-color="#808080"/>
</linearGradient>
<linearGradient id="paint2_linear_25_3169" x1="0.221191" y1="26.9782" x2="633.721" y2="26.9781" gradientUnits="userSpaceOnUse">
<stop stop-color="#B3B3B3"/>
<stop offset="1" stop-color="#808080"/>
</linearGradient>
<linearGradient id="paint3_linear_25_3169" x1="0.221191" y1="26.9782" x2="633.721" y2="26.9781" gradientUnits="userSpaceOnUse">
<stop stop-color="#B3B3B3"/>
<stop offset="1" stop-color="#808080"/>
</linearGradient>
<linearGradient id="paint4_linear_25_3169" x1="0.221191" y1="26.9782" x2="633.721" y2="26.9781" gradientUnits="userSpaceOnUse">
<stop stop-color="#B3B3B3"/>
<stop offset="1" stop-color="#808080"/>
</linearGradient>
<linearGradient id="paint5_linear_25_3169" x1="0.221191" y1="26.9782" x2="633.721" y2="26.9781" gradientUnits="userSpaceOnUse">
<stop stop-color="#B3B3B3"/>
<stop offset="1" stop-color="#808080"/>
</linearGradient>
<linearGradient id="paint6_linear_25_3169" x1="0.221191" y1="26.9782" x2="633.721" y2="26.9781" gradientUnits="userSpaceOnUse">
<stop stop-color="#B3B3B3"/>
<stop offset="1" stop-color="#808080"/>
</linearGradient>
<linearGradient id="paint7_linear_25_3169" x1="0.221191" y1="26.9782" x2="633.721" y2="26.9781" gradientUnits="userSpaceOnUse">
<stop stop-color="#B3B3B3"/>
<stop offset="1" stop-color="#808080"/>
</linearGradient>
<linearGradient id="paint8_linear_25_3169" x1="0.221191" y1="26.9782" x2="633.721" y2="26.9781" gradientUnits="userSpaceOnUse">
<stop stop-color="#B3B3B3"/>
<stop offset="1" stop-color="#808080"/>
</linearGradient>
<linearGradient id="paint9_linear_25_3169" x1="0.221191" y1="26.9782" x2="633.721" y2="26.9781" gradientUnits="userSpaceOnUse">
<stop stop-color="#B3B3B3"/>
<stop offset="1" stop-color="#808080"/>
</linearGradient>
<linearGradient id="paint10_linear_25_3169" x1="0.221191" y1="26.9782" x2="633.721" y2="26.9781" gradientUnits="userSpaceOnUse">
<stop stop-color="#B3B3B3"/>
<stop offset="1" stop-color="#808080"/>
</linearGradient>
<linearGradient id="paint11_linear_25_3169" x1="0.221191" y1="26.9782" x2="633.721" y2="26.9781" gradientUnits="userSpaceOnUse">
<stop stop-color="#B3B3B3"/>
<stop offset="1" stop-color="#808080"/>
</linearGradient>
<linearGradient id="paint12_linear_25_3169" x1="0.221191" y1="26.9782" x2="633.721" y2="26.9781" gradientUnits="userSpaceOnUse">
<stop stop-color="#B3B3B3"/>
<stop offset="1" stop-color="#808080"/>
</linearGradient>
<linearGradient id="paint13_linear_25_3169" x1="0.221191" y1="26.9782" x2="633.721" y2="26.9781" gradientUnits="userSpaceOnUse">
<stop stop-color="#B3B3B3"/>
<stop offset="1" stop-color="#808080"/>
</linearGradient>
<linearGradient id="paint14_linear_25_3169" x1="0.221191" y1="26.9782" x2="633.721" y2="26.9781" gradientUnits="userSpaceOnUse">
<stop stop-color="#B3B3B3"/>
<stop offset="1" stop-color="#808080"/>
</linearGradient>
<linearGradient id="paint15_linear_25_3169" x1="0.221191" y1="26.9782" x2="633.721" y2="26.9781" gradientUnits="userSpaceOnUse">
<stop stop-color="#B3B3B3"/>
<stop offset="1" stop-color="#808080"/>
</linearGradient>
<linearGradient id="paint16_linear_25_3169" x1="0.221191" y1="26.9782" x2="633.721" y2="26.9781" gradientUnits="userSpaceOnUse">
<stop stop-color="#B3B3B3"/>
<stop offset="1" stop-color="#808080"/>
</linearGradient>
<linearGradient id="paint17_linear_25_3169" x1="0.221191" y1="26.9782" x2="633.721" y2="26.9781" gradientUnits="userSpaceOnUse">
<stop stop-color="#B3B3B3"/>
<stop offset="1" stop-color="#808080"/>
</linearGradient>
<linearGradient id="paint18_linear_25_3169" x1="0.221191" y1="26.9782" x2="633.721" y2="26.9781" gradientUnits="userSpaceOnUse">
<stop stop-color="#B3B3B3"/>
<stop offset="1" stop-color="#808080"/>
</linearGradient>
<linearGradient id="paint19_linear_25_3169" x1="0.221191" y1="26.9782" x2="633.721" y2="26.9781" gradientUnits="userSpaceOnUse">
<stop stop-color="#B3B3B3"/>
<stop offset="1" stop-color="#808080"/>
</linearGradient>
<linearGradient id="paint20_linear_25_3169" x1="0.221191" y1="26.9782" x2="633.721" y2="26.9781" gradientUnits="userSpaceOnUse">
<stop stop-color="#B3B3B3"/>
<stop offset="1" stop-color="#808080"/>
</linearGradient>
</defs>
</svg>
